<svg xmlns="http://www.w3.org/2000/svg" xmlns:xlink="http://www.w3.org/1999/xlink" width="300" zoomAndPan="magnify" viewBox="0 0 224.87999 89.999999" height="120" preserveAspectRatio="xMidYMid meet" version="1.0"><path fill="#000000" d="M 126.113281 15.605469 C 133.1875 15.582031 133.1875 15.582031 140.40625 15.5625 C 141.886719 15.554688 143.367188 15.550781 144.894531 15.542969 C 146.722656 15.539062 146.722656 15.539062 147.582031 15.539062 C 148.175781 15.539062 148.765625 15.535156 149.359375 15.53125 C 155.894531 15.496094 162.15625 15.898438 167.082031 20.703125 C 170.222656 24.019531 170.933594 27.292969 170.855469 31.738281 C 170.707031 35.214844 169.117188 37.945312 166.671875 40.335938 C 164.824219 42.011719 164.824219 42.011719 163.996094 42.011719 C 163.996094 42.234375 163.996094 42.460938 163.996094 42.691406 C 164.238281 42.722656 164.480469 42.757812 164.730469 42.796875 C 167.773438 43.535156 170.347656 45.945312 172.117188 48.445312 C 174.1875 52.199219 174.371094 56.609375 173.585938 60.785156 C 172.332031 64.554688 169.589844 67.328125 166.175781 69.246094 C 160.664062 71.9375 154.75 71.855469 148.773438 71.839844 C 148.191406 71.839844 147.613281 71.839844 147.03125 71.839844 C 144.890625 71.835938 142.753906 71.832031 140.617188 71.828125 C 133.4375 71.816406 133.4375 71.816406 126.113281 71.804688 C 126.113281 53.257812 126.113281 34.710938 126.113281 15.605469 Z M 138.628906 26.777344 C 138.628906 30.574219 138.628906 34.375 138.628906 38.289062 C 140.433594 38.300781 142.242188 38.316406 144.105469 38.332031 C 144.945312 38.339844 144.945312 38.339844 145.800781 38.347656 C 151.667969 38.5 151.667969 38.5 156.894531 36.257812 C 158.074219 35.015625 158.347656 34.03125 158.417969 32.363281 C 158.347656 30.695312 158.074219 29.710938 156.894531 28.46875 C 155.242188 27.28125 153.703125 26.730469 151.683594 26.738281 C 151.394531 26.738281 151.101562 26.738281 150.800781 26.738281 C 150.492188 26.738281 150.179688 26.742188 149.859375 26.742188 C 149.539062 26.746094 149.21875 26.746094 148.886719 26.746094 C 147.863281 26.746094 146.839844 26.75 145.816406 26.753906 C 145.121094 26.757812 144.425781 26.757812 143.734375 26.761719 C 142.03125 26.765625 140.328125 26.769531 138.628906 26.777344 Z M 138.628906 48.785156 C 138.628906 52.695312 138.628906 56.605469 138.628906 60.632812 C 140.886719 60.648438 143.140625 60.664062 145.398438 60.671875 C 146.164062 60.675781 146.929688 60.679688 147.699219 60.683594 C 148.804688 60.691406 149.910156 60.695312 151.015625 60.699219 C 151.355469 60.703125 151.695312 60.707031 152.042969 60.710938 C 155.410156 60.710938 157.933594 60.332031 160.550781 58.074219 C 161.765625 56.601562 161.453125 54.292969 161.292969 52.507812 C 160.554688 50.78125 159.546875 50.140625 157.910156 49.378906 C 156.628906 48.890625 155.511719 48.742188 154.140625 48.746094 C 153.625 48.746094 153.625 48.746094 153.097656 48.746094 C 152.539062 48.746094 152.539062 48.746094 151.972656 48.75 C 151.402344 48.75 151.402344 48.75 150.820312 48.753906 C 149.601562 48.753906 148.386719 48.757812 147.167969 48.761719 C 146.34375 48.765625 145.519531 48.765625 144.695312 48.765625 C 142.671875 48.769531 140.652344 48.777344 138.628906 48.785156 Z M 138.628906 48.785156 " fill-opacity="1" fill-rule="nonzero"/><path fill="#000000" d="M 54.566406 16.53125 C 61.882812 22.171875 66.890625 29.746094 68.269531 38.964844 C 69.378906 47.964844 67.382812 57.0625 61.84375 64.359375 C 60.871094 65.53125 59.851562 66.640625 58.800781 67.742188 C 58.488281 68.09375 58.488281 68.09375 58.171875 68.449219 C 53.554688 73.445312 45.988281 76.855469 39.253906 77.285156 C 28.824219 77.507812 20.628906 75.398438 12.855469 68.132812 C 6.550781 62.046875 3.046875 53.765625 2.828125 45.046875 C 2.785156 39.421875 3.566406 34.585938 6.03125 29.484375 C 6.175781 29.179688 6.320312 28.875 6.472656 28.5625 C 10.675781 20.324219 17.90625 14.703125 26.59375 11.820312 C 36.199219 9.347656 46.378906 10.804688 54.566406 16.53125 Z M 13.8125 33.210938 C 13.558594 33.414062 13.308594 33.617188 13.046875 33.828125 C 10.238281 36.164062 6.828125 39.835938 5.695312 43.367188 C 6.03125 47.292969 9.511719 50.511719 12.121094 53.183594 C 12.453125 53.554688 12.453125 53.554688 12.792969 53.933594 C 18.050781 59.636719 26.519531 62.71875 34.105469 63.078125 C 43.257812 63.351562 51.597656 60.203125 58.460938 54.199219 C 58.71875 53.980469 58.972656 53.757812 59.238281 53.527344 C 61.34375 51.5625 62.972656 49.148438 64.550781 46.753906 C 64.691406 46.554688 64.832031 46.355469 64.976562 46.148438 C 65.652344 45.113281 65.9375 44.574219 65.722656 43.335938 C 61.851562 35.628906 54.710938 29.613281 46.621094 26.777344 C 35.179688 23.292969 22.921875 25.210938 13.8125 33.210938 Z M 13.8125 33.210938 " fill-opacity="1" fill-rule="nonzero"/><path fill="#000000" d="M 198.054688 14.777344 C 198.632812 14.78125 198.632812 14.78125 199.21875 14.785156 C 202.40625 14.847656 205.289062 15.269531 208.308594 16.28125 C 208.523438 16.351562 208.738281 16.417969 208.960938 16.488281 C 212.511719 17.664062 215.4375 19.53125 218.457031 21.699219 C 218.242188 22.980469 217.65625 23.8125 216.914062 24.863281 C 216.671875 25.207031 216.429688 25.550781 216.183594 25.90625 C 215.929688 26.261719 215.675781 26.621094 215.414062 26.988281 C 214.914062 27.699219 214.410156 28.40625 213.910156 29.117188 C 213.6875 29.433594 213.464844 29.746094 213.238281 30.070312 C 212.703125 30.804688 212.703125 30.804688 212.367188 31.515625 C 210.980469 31.011719 209.800781 30.320312 208.542969 29.546875 C 204.109375 26.953125 199.367188 25.613281 194.222656 26.613281 C 193.175781 26.949219 192.410156 27.453125 191.566406 28.152344 C 190.832031 29.585938 190.835938 30.949219 191.058594 32.53125 C 191.535156 33.878906 192.222656 34.269531 193.480469 34.890625 C 195.90625 36.042969 198.429688 36.765625 201.015625 37.460938 C 215.019531 41.289062 215.019531 41.289062 218.6875 47.492188 C 219.863281 49.996094 220.328125 52.214844 220.296875 54.984375 C 220.292969 55.296875 220.289062 55.609375 220.289062 55.929688 C 220.175781 60.445312 218.515625 64.488281 215.222656 67.660156 C 212.375 69.957031 208.824219 71.421875 205.265625 72.144531 C 204.964844 72.207031 204.664062 72.269531 204.351562 72.332031 C 194.890625 73.609375 185.285156 71.011719 177.71875 65.246094 C 177.0625 64.746094 176.449219 64.238281 175.835938 63.679688 C 175.835938 63.457031 175.835938 63.234375 175.835938 63.003906 C 176.058594 63.003906 176.285156 63.003906 176.511719 63.003906 C 176.605469 62.800781 176.699219 62.601562 176.796875 62.394531 C 177.171875 61.6875 177.554688 61.160156 178.085938 60.5625 C 178.257812 60.363281 178.429688 60.164062 178.609375 59.960938 C 178.789062 59.757812 178.96875 59.554688 179.15625 59.34375 C 180.515625 57.796875 181.765625 56.234375 182.941406 54.539062 C 183.996094 55.023438 184.941406 55.628906 185.90625 56.273438 C 191.097656 59.722656 196.796875 62.027344 203.160156 60.789062 C 204.664062 60.335938 205.8125 59.710938 206.957031 58.601562 C 207.628906 57.257812 207.472656 55.664062 207.292969 54.199219 C 205.320312 51.066406 200.246094 50.296875 196.871094 49.394531 C 183.695312 45.851562 183.695312 45.851562 179.917969 40.339844 C 179.671875 39.890625 179.4375 39.429688 179.21875 38.964844 C 179.113281 38.738281 179.003906 38.515625 178.894531 38.28125 C 177.421875 34.421875 177.710938 29.179688 179.113281 25.363281 C 181.074219 21.152344 184.269531 18.273438 188.464844 16.378906 C 191.671875 15.25 194.65625 14.746094 198.054688 14.777344 Z M 198.054688 14.777344 " fill-opacity="1" fill-rule="nonzero"/><path fill="#000000" d="M 121.714844 23.050781 C 121.1875 24.296875 120.417969 25.140625 119.496094 26.121094 C 118.007812 27.722656 116.632812 29.378906 115.292969 31.105469 C 114.636719 31.828125 114.15625 32.175781 113.257812 32.53125 C 113.070312 32.363281 112.878906 32.195312 112.6875 32.023438 C 108.890625 28.804688 104.648438 26.632812 99.601562 26.671875 C 99.226562 26.671875 99.226562 26.671875 98.839844 26.675781 C 94.921875 26.757812 91.378906 28.246094 88.460938 30.890625 C 84.613281 35.097656 83.578125 40.207031 83.785156 45.738281 C 84.050781 49.667969 85.851562 53.710938 88.566406 56.570312 C 92.496094 59.90625 96.660156 60.921875 101.722656 60.691406 C 106.5 60.296875 110.210938 57.738281 113.597656 54.539062 C 114.796875 55.050781 115.554688 55.75 116.464844 56.679688 C 116.746094 56.964844 117.03125 57.25 117.320312 57.546875 C 117.613281 57.847656 117.90625 58.144531 118.207031 58.453125 C 118.789062 59.046875 119.371094 59.640625 119.953125 60.234375 C 120.210938 60.496094 120.46875 60.761719 120.730469 61.03125 C 121.335938 61.671875 121.335938 61.671875 122.054688 61.988281 C 122.054688 63.003906 122.054688 63.003906 121.59375 63.515625 C 120.84375 64.136719 120.097656 64.753906 119.347656 65.375 C 118.941406 65.738281 118.941406 65.738281 118.53125 66.109375 C 113.628906 70.40625 107.574219 72.554688 101.082031 72.820312 C 100.816406 72.839844 100.550781 72.855469 100.277344 72.875 C 92.707031 73.152344 85.160156 70.582031 79.539062 65.480469 C 73.925781 60.171875 70.523438 53.125 70.230469 45.34375 C 70.078125 36.75 72.609375 29.507812 78.417969 23.050781 C 90.394531 10.667969 109.519531 12.640625 121.714844 23.050781 Z M 121.714844 23.050781 " fill-opacity="1" fill-rule="nonzero"/><path fill="#000000" d="M 48.417969 31.453125 C 52.007812 35.273438 53.511719 40.027344 53.460938 45.1875 C 53.164062 50.242188 50.589844 54.519531 46.960938 57.925781 C 42.871094 61.332031 37.902344 62.054688 32.753906 61.648438 C 27.855469 60.75 23.691406 58.019531 20.832031 53.96875 C 18.347656 50.078125 17.3125 45.585938 18.027344 41.011719 C 19.15625 35.933594 21.78125 31.769531 26.117188 28.828125 C 33.496094 24.472656 42.179688 25.589844 48.417969 31.453125 Z M 48.417969 31.453125 " fill-opacity="1" fill-rule="nonzero"/></svg>