<svg xmlns="http://www.w3.org/2000/svg" xmlns:xlink="http://www.w3.org/1999/xlink" width="300" zoomAndPan="magnify" viewBox="0 0 224.87999 89.999999" height="120" preserveAspectRatio="xMidYMid meet" version="1.0"><defs><clipPath id="fa4754ebfd"><path d="M 145 33 L 182 33 L 182 72.910156 L 145 72.910156 Z M 145 33 " clip-rule="nonzero"/></clipPath><clipPath id="6f81232cd7"><path d="M 102 33 L 139 33 L 139 72.910156 L 102 72.910156 Z M 102 33 " clip-rule="nonzero"/></clipPath><clipPath id="f1b6025858"><path d="M 185 32 L 224.761719 32 L 224.761719 72.910156 L 185 72.910156 Z M 185 32 " clip-rule="nonzero"/></clipPath><clipPath id="05539881f5"><path d="M 25 17.4375 L 46 17.4375 L 46 62 L 25 62 Z M 25 17.4375 " clip-rule="nonzero"/></clipPath><clipPath id="2fafaaa7d5"><path d="M 52 52 L 94 52 L 94 72.910156 L 52 72.910156 Z M 52 52 " clip-rule="nonzero"/></clipPath><clipPath id="7249157263"><path d="M 0 52 L 42 52 L 42 72.910156 L 0 72.910156 Z M 0 52 " clip-rule="nonzero"/></clipPath><clipPath id="1ac394fb76"><path d="M 48 17.4375 L 68 17.4375 L 68 62 L 48 62 Z M 48 17.4375 " clip-rule="nonzero"/></clipPath></defs><g clip-path="url(#fa4754ebfd)"><path fill="#000000" d="M 145.820312 33.128906 C 149.730469 33.113281 153.644531 33.09375 157.675781 33.074219 C 158.90625 33.066406 160.136719 33.058594 161.402344 33.050781 C 162.917969 33.046875 162.917969 33.046875 163.632812 33.046875 C 164.125 33.042969 164.617188 33.042969 165.105469 33.035156 C 169.710938 32.996094 173.878906 33.246094 177.382812 36.59375 C 179.625 38.914062 180.457031 41.382812 180.53125 44.621094 C 180.4375 46.542969 179.65625 48.320312 178.320312 49.703125 C 177.746094 50.167969 177.160156 50.605469 176.5625 51.03125 C 176.703125 51.140625 176.84375 51.25 176.988281 51.363281 C 179.445312 53.304688 181.308594 55.042969 181.785156 58.300781 C 182.023438 61.734375 181.363281 65.324219 179.183594 68.0625 C 176.667969 70.816406 172.957031 71.851562 169.355469 72.0625 C 167.679688 72.117188 166.003906 72.101562 164.324219 72.089844 C 163.851562 72.089844 163.375 72.089844 162.898438 72.089844 C 161.152344 72.085938 159.410156 72.074219 157.664062 72.066406 C 153.753906 72.054688 149.847656 72.039062 145.820312 72.027344 C 145.820312 59.191406 145.820312 46.355469 145.820312 33.128906 Z M 154.164062 40.644531 C 154.164062 42.976562 154.164062 45.3125 154.164062 47.714844 C 156.652344 47.742188 156.652344 47.742188 159.140625 47.757812 C 160.15625 47.765625 161.171875 47.769531 162.191406 47.78125 C 163.011719 47.792969 163.832031 47.796875 164.648438 47.800781 C 164.960938 47.800781 165.273438 47.804688 165.585938 47.808594 C 167.34375 47.835938 168.90625 47.839844 170.414062 46.832031 C 171.414062 45.777344 171.589844 45.058594 171.574219 43.636719 C 171.460938 42.628906 170.9375 42.042969 170.234375 41.363281 C 169.136719 40.730469 168 40.589844 166.753906 40.59375 C 166.472656 40.59375 166.191406 40.59375 165.902344 40.59375 C 165.597656 40.597656 165.296875 40.597656 164.992188 40.601562 C 164.679688 40.601562 164.367188 40.601562 164.054688 40.601562 C 163.234375 40.605469 162.417969 40.609375 161.597656 40.613281 C 160.613281 40.617188 159.625 40.621094 158.640625 40.625 C 157.148438 40.628906 155.65625 40.636719 154.164062 40.644531 Z M 154.164062 55.230469 C 154.164062 58.21875 154.164062 61.210938 154.164062 64.289062 C 155.921875 64.304688 157.675781 64.316406 159.433594 64.324219 C 160.253906 64.328125 161.070312 64.332031 161.886719 64.339844 C 162.679688 64.347656 163.46875 64.351562 164.257812 64.351562 C 164.703125 64.355469 165.148438 64.359375 165.589844 64.367188 C 168.015625 64.367188 170.210938 64.21875 172.054688 62.503906 C 173.03125 61.269531 172.988281 59.828125 172.828125 58.324219 C 172.476562 57.246094 171.804688 56.488281 170.851562 55.894531 C 169.128906 55.058594 167.332031 55.144531 165.464844 55.164062 C 165.136719 55.167969 164.8125 55.167969 164.484375 55.167969 C 163.628906 55.171875 162.773438 55.175781 161.921875 55.183594 C 160.890625 55.191406 159.863281 55.195312 158.835938 55.199219 C 157.277344 55.207031 155.71875 55.21875 154.164062 55.230469 Z M 154.164062 55.230469 " fill-opacity="1" fill-rule="nonzero"/></g><g clip-path="url(#6f81232cd7)"><path fill="#000000" d="M 102.339844 33.128906 C 105.382812 33.128906 108.425781 33.128906 111.5625 33.128906 C 114.023438 36.351562 114.023438 36.351562 115.210938 37.992188 C 116.339844 39.539062 117.484375 41.070312 118.644531 42.589844 C 119.6875 43.960938 120.707031 45.335938 121.695312 46.75 C 122.519531 47.921875 123.386719 49.0625 124.257812 50.203125 C 125.75 52.164062 127.203125 54.152344 128.628906 56.164062 C 128.9375 56.59375 129.253906 57.015625 129.570312 57.441406 C 129.640625 49.417969 129.714844 41.394531 129.789062 33.128906 C 132.613281 33.128906 135.441406 33.128906 138.351562 33.128906 C 138.351562 45.964844 138.351562 58.800781 138.351562 72.027344 C 129.128906 72.027344 129.128906 72.027344 127.207031 70.1875 C 126.90625 69.605469 126.605469 69.019531 126.339844 68.417969 C 125.863281 67.429688 125.195312 66.605469 124.53125 65.742188 C 124.273438 65.390625 124.019531 65.042969 123.765625 64.691406 C 122.820312 63.410156 121.871094 62.136719 120.917969 60.859375 C 119.859375 59.445312 118.8125 58.019531 117.769531 56.589844 C 116.699219 55.125 115.617188 53.667969 114.527344 52.21875 C 113.359375 50.664062 112.25 49.082031 111.121094 47.496094 C 111.050781 55.589844 110.976562 63.683594 110.902344 72.027344 C 108.078125 72.027344 105.25 72.027344 102.339844 72.027344 C 102.339844 59.191406 102.339844 46.355469 102.339844 33.128906 Z M 102.339844 33.128906 " fill-opacity="1" fill-rule="nonzero"/></g><g clip-path="url(#f1b6025858)"><path fill="#000000" d="M 220.261719 36.222656 C 221.410156 37.199219 222.5 38.242188 223.554688 39.316406 C 223.253906 40.007812 222.898438 40.476562 222.367188 41.007812 C 222.21875 41.15625 222.070312 41.304688 221.914062 41.460938 C 221.679688 41.691406 221.679688 41.691406 221.441406 41.929688 C 221.292969 42.078125 221.140625 42.230469 220.984375 42.386719 C 219.714844 43.65625 218.410156 44.878906 216.96875 45.949219 C 216.828125 45.804688 216.691406 45.664062 216.546875 45.519531 C 214.199219 43.234375 211.507812 41.792969 208.183594 41.527344 C 208.039062 41.515625 207.890625 41.503906 207.742188 41.492188 C 204.492188 41.359375 201.304688 42.589844 198.851562 44.703125 C 196.925781 46.582031 195.460938 49.035156 195.382812 51.777344 C 195.351562 55.074219 196.335938 57.824219 198.589844 60.269531 C 201.117188 62.644531 204.472656 63.707031 207.878906 63.621094 C 211.539062 63.460938 214.511719 62.277344 217.296875 59.890625 C 217.894531 59.386719 218.503906 58.957031 219.164062 58.542969 C 220.363281 59.859375 221.519531 61.199219 222.628906 62.59375 C 223.246094 63.339844 223.90625 64.042969 224.582031 64.738281 C 224.875 65.175781 224.875 65.175781 224.882812 65.609375 C 223.441406 68.464844 218.304688 70.867188 215.460938 71.808594 C 215.3125 71.859375 215.160156 71.90625 215.003906 71.957031 C 214.796875 72.023438 214.796875 72.023438 214.585938 72.09375 C 210.144531 73.449219 204.917969 73.488281 200.5 72.027344 C 200.355469 71.976562 200.210938 71.929688 200.0625 71.882812 C 197.003906 70.835938 194.460938 69.199219 192.152344 66.941406 C 192.007812 66.808594 191.859375 66.675781 191.707031 66.539062 C 188.050781 63.148438 186.183594 58.175781 185.976562 53.25 C 185.871094 47.726562 187.734375 42.765625 191.445312 38.710938 C 198.796875 31.054688 211.734375 29.699219 220.261719 36.222656 Z M 220.261719 36.222656 " fill-opacity="1" fill-rule="nonzero"/></g><g clip-path="url(#05539881f5)"><path fill="#ef1440" d="M 35.554688 17.34375 C 35.746094 17.34375 35.9375 17.34375 36.136719 17.347656 C 37.625 17.386719 38.871094 17.601562 40.191406 18.324219 C 40.449219 18.464844 40.449219 18.464844 40.714844 18.605469 C 42.945312 19.96875 44.222656 21.816406 45.023438 24.289062 C 45.5625 26.613281 45.164062 28.984375 44.824219 31.308594 C 44.777344 31.628906 44.734375 31.945312 44.6875 32.265625 C 44.566406 33.121094 44.441406 33.976562 44.320312 34.832031 C 44.1875 35.730469 44.0625 36.628906 43.933594 37.53125 C 43.71875 39.039062 43.503906 40.546875 43.285156 42.054688 C 42.980469 44.179688 42.675781 46.304688 42.371094 48.429688 C 41.964844 51.277344 41.558594 54.125 41.148438 56.976562 C 41.101562 57.28125 41.058594 57.589844 41.015625 57.898438 C 40.953125 58.316406 40.894531 58.738281 40.832031 59.160156 C 40.78125 59.511719 40.78125 59.511719 40.730469 59.871094 C 40.632812 60.535156 40.523438 61.195312 40.410156 61.859375 C 40.265625 61.859375 40.121094 61.859375 39.972656 61.859375 C 39.859375 61.597656 39.75 61.339844 39.632812 61.070312 C 37.597656 56.355469 35.5625 51.644531 33.507812 46.941406 C 32.03125 43.554688 30.554688 40.167969 29.101562 36.773438 C 28.878906 36.246094 28.652344 35.71875 28.425781 35.191406 C 28.085938 34.40625 27.75 33.617188 27.414062 32.824219 C 27.3125 32.59375 27.214844 32.359375 27.109375 32.117188 C 25.851562 29.140625 25.46875 26.523438 26.53125 23.394531 C 26.894531 22.503906 27.328125 21.742188 27.894531 20.976562 C 28.050781 20.75 28.203125 20.527344 28.363281 20.296875 C 30.183594 18.1875 32.863281 17.308594 35.554688 17.34375 Z M 35.554688 17.34375 " fill-opacity="1" fill-rule="nonzero"/></g><path fill="#ff7011" d="M 22.257812 32.339844 C 25.460938 34.648438 26.75 38.042969 28.253906 41.554688 C 28.660156 42.503906 29.070312 43.453125 29.480469 44.402344 C 29.566406 44.601562 29.652344 44.800781 29.738281 45.003906 C 30.703125 47.234375 31.679688 49.457031 32.65625 51.679688 C 33.914062 54.542969 35.171875 57.402344 36.417969 60.269531 C 36.480469 60.410156 36.539062 60.550781 36.601562 60.695312 C 36.996094 61.597656 37.386719 62.503906 37.777344 63.40625 C 37.839844 63.546875 37.898438 63.6875 37.964844 63.835938 C 38.148438 64.261719 38.335938 64.691406 38.519531 65.121094 C 38.628906 65.375 38.742188 65.628906 38.855469 65.890625 C 39.09375 66.5 39.09375 66.5 39.09375 66.941406 C 37.992188 66.574219 37.109375 65.933594 36.164062 65.28125 C 35.980469 65.15625 35.800781 65.03125 35.613281 64.902344 C 35.21875 64.632812 34.824219 64.363281 34.429688 64.09375 C 33.367188 63.367188 32.304688 62.640625 31.242188 61.917969 C 31.023438 61.765625 30.800781 61.617188 30.574219 61.460938 C 27.8125 59.582031 25.023438 57.742188 22.234375 55.910156 C 20.128906 54.519531 18.046875 53.105469 15.992188 51.644531 C 14.898438 50.867188 13.792969 50.113281 12.675781 49.375 C 10.054688 47.621094 8.234375 45.847656 7.566406 42.609375 C 7.167969 39.917969 7.660156 37.148438 9.230469 34.898438 C 9.347656 34.730469 9.460938 34.5625 9.582031 34.386719 C 12.449219 30.726562 18.355469 29.933594 22.257812 32.339844 Z M 22.257812 32.339844 " fill-opacity="1" fill-rule="nonzero"/><path fill="#059de0" d="M 81.527344 32.308594 C 81.984375 32.628906 82.386719 32.96875 82.792969 33.351562 C 82.945312 33.492188 83.097656 33.632812 83.253906 33.777344 C 85.265625 35.835938 85.933594 38.5 85.9375 41.320312 C 85.890625 43.675781 85.082031 45.589844 83.453125 47.273438 C 82.316406 48.335938 81.132812 49.246094 79.839844 50.101562 C 79.574219 50.277344 79.574219 50.277344 79.304688 50.457031 C 78.925781 50.710938 78.542969 50.960938 78.164062 51.214844 C 77.125 51.902344 76.09375 52.589844 75.058594 53.28125 C 74.84375 53.421875 74.632812 53.566406 74.410156 53.714844 C 72.359375 55.082031 70.320312 56.464844 68.285156 57.855469 C 65.148438 59.988281 62.007812 62.117188 58.855469 64.222656 C 58.484375 64.46875 58.113281 64.714844 57.746094 64.964844 C 57.238281 65.304688 56.730469 65.644531 56.222656 65.980469 C 56.070312 66.082031 55.921875 66.183594 55.765625 66.289062 C 55.414062 66.519531 55.050781 66.734375 54.6875 66.941406 C 54.539062 66.871094 54.394531 66.796875 54.246094 66.722656 C 54.488281 66.167969 54.730469 65.613281 54.972656 65.058594 C 55.050781 64.882812 55.125 64.707031 55.207031 64.523438 C 55.285156 64.335938 55.367188 64.152344 55.449219 63.960938 C 55.535156 63.765625 55.621094 63.570312 55.710938 63.367188 C 56.675781 61.152344 56.675781 61.152344 57.640625 58.9375 C 57.734375 58.726562 57.828125 58.511719 57.925781 58.292969 C 58.1875 57.691406 58.449219 57.089844 58.710938 56.488281 C 58.792969 56.300781 58.875 56.113281 58.957031 55.921875 C 59.121094 55.546875 59.285156 55.171875 59.449219 54.800781 C 59.851562 53.871094 60.257812 52.941406 60.664062 52.011719 C 61.425781 50.261719 62.191406 48.511719 62.953125 46.757812 C 63.3125 45.945312 63.667969 45.128906 64.023438 44.3125 C 64.191406 43.929688 64.359375 43.542969 64.527344 43.160156 C 64.683594 42.796875 64.84375 42.433594 65 42.074219 C 65.152344 41.726562 65.300781 41.378906 65.453125 41.035156 C 65.816406 40.203125 66.179688 39.367188 66.535156 38.53125 C 66.601562 38.371094 66.671875 38.210938 66.742188 38.046875 C 66.871094 37.746094 66.996094 37.445312 67.121094 37.144531 C 68.253906 34.496094 70.195312 32.699219 72.800781 31.570312 C 75.515625 30.542969 79.039062 30.863281 81.527344 32.308594 Z M 81.527344 32.308594 " fill-opacity="1" fill-rule="nonzero"/><g clip-path="url(#2fafaaa7d5)"><path fill="#04ac3e" d="M 89.820312 54.34375 C 91.828125 56.023438 93.136719 58.148438 93.554688 60.753906 C 93.828125 63.859375 93.140625 66.460938 91.242188 68.921875 C 89.453125 70.929688 86.621094 71.878906 84.007812 72.085938 C 83.160156 72.105469 82.316406 72.109375 81.46875 72.101562 C 81.144531 72.101562 80.824219 72.101562 80.5 72.101562 C 79.632812 72.101562 78.765625 72.097656 77.894531 72.09375 C 76.988281 72.089844 76.078125 72.089844 75.167969 72.085938 C 73.445312 72.085938 71.726562 72.078125 70.007812 72.074219 C 68.046875 72.066406 66.089844 72.0625 64.128906 72.058594 C 60.105469 72.050781 56.078125 72.039062 52.050781 72.027344 C 52.753906 71.304688 53.421875 70.695312 54.265625 70.148438 C 54.5 69.996094 54.730469 69.84375 54.972656 69.6875 C 55.101562 69.601562 55.230469 69.519531 55.363281 69.429688 C 56.171875 68.898438 56.96875 68.347656 57.765625 67.804688 C 58.140625 67.550781 58.511719 67.296875 58.882812 67.042969 C 59.074219 66.914062 59.269531 66.78125 59.464844 66.644531 C 63.488281 63.910156 67.527344 61.203125 71.585938 58.523438 C 71.773438 58.394531 71.964844 58.269531 72.160156 58.140625 C 72.53125 57.898438 72.902344 57.652344 73.273438 57.40625 C 74.183594 56.804688 75.089844 56.199219 75.996094 55.585938 C 76.171875 55.464844 76.351562 55.34375 76.535156 55.21875 C 76.867188 54.992188 77.203125 54.765625 77.535156 54.535156 C 81.386719 51.921875 85.941406 51.4375 89.820312 54.34375 Z M 89.820312 54.34375 " fill-opacity="1" fill-rule="nonzero"/></g><g clip-path="url(#7249157263)"><path fill="#fccc11" d="M 18.476562 56.203125 C 19.003906 56.566406 19.53125 56.925781 20.058594 57.289062 C 20.816406 57.808594 21.574219 58.328125 22.332031 58.847656 C 24.089844 60.050781 25.851562 61.253906 27.617188 62.453125 C 28.011719 62.71875 28.40625 62.988281 28.800781 63.257812 C 30.992188 64.746094 33.1875 66.222656 35.398438 67.675781 C 35.59375 67.804688 35.792969 67.933594 35.992188 68.066406 C 36.929688 68.683594 37.863281 69.296875 38.804688 69.90625 C 39.132812 70.121094 39.464844 70.339844 39.796875 70.558594 C 39.949219 70.65625 40.101562 70.753906 40.257812 70.855469 C 40.609375 71.085938 40.953125 71.332031 41.289062 71.582031 C 41.289062 71.730469 41.289062 71.875 41.289062 72.027344 C 37.070312 72.039062 32.847656 72.050781 28.628906 72.058594 C 26.667969 72.0625 24.707031 72.066406 22.75 72.074219 C 21.039062 72.082031 19.332031 72.085938 17.621094 72.085938 C 16.71875 72.089844 15.8125 72.089844 14.910156 72.09375 C 14.054688 72.101562 13.203125 72.101562 12.351562 72.101562 C 12.039062 72.101562 11.726562 72.101562 11.417969 72.105469 C 8.109375 72.128906 5.691406 71.425781 2.914062 69.648438 C 0.808594 67.53125 -0.0703125 65.136719 -0.105469 62.175781 C -0.078125 59.675781 0.546875 57.78125 2.203125 55.894531 C 2.328125 55.742188 2.453125 55.59375 2.585938 55.4375 C 7.433594 50.082031 13.523438 52.785156 18.476562 56.203125 Z M 18.476562 56.203125 " fill-opacity="1" fill-rule="nonzero"/></g><g clip-path="url(#1ac394fb76)"><path fill="#6d54dc" d="M 63.417969 18.933594 C 65.628906 20.578125 66.921875 22.675781 67.421875 25.394531 C 67.769531 29.03125 66.460938 31.867188 65.015625 35.125 C 64.570312 36.128906 64.128906 37.132812 63.6875 38.136719 C 63.597656 38.347656 63.503906 38.554688 63.410156 38.765625 C 62.460938 40.933594 61.539062 43.109375 60.613281 45.285156 C 59.257812 48.484375 57.886719 51.671875 56.496094 54.855469 C 56.414062 55.046875 56.332031 55.234375 56.25 55.429688 C 55.308594 57.582031 54.359375 59.730469 53.367188 61.859375 C 52.933594 61.203125 52.847656 60.929688 52.742188 60.179688 C 52.710938 59.96875 52.683594 59.761719 52.652344 59.542969 C 52.621094 59.316406 52.589844 59.085938 52.554688 58.851562 C 52.523438 58.609375 52.488281 58.367188 52.453125 58.117188 C 52.339844 57.316406 52.226562 56.515625 52.117188 55.714844 C 52.039062 55.15625 51.960938 54.597656 51.882812 54.042969 C 51.71875 52.871094 51.554688 51.699219 51.394531 50.527344 C 51.207031 49.179688 51.019531 47.832031 50.828125 46.484375 C 50.644531 45.183594 50.464844 43.882812 50.285156 42.582031 C 50.207031 42.03125 50.128906 41.480469 50.050781 40.929688 C 49.945312 40.15625 49.835938 39.378906 49.730469 38.605469 C 49.699219 38.382812 49.667969 38.15625 49.632812 37.925781 C 49.074219 33.777344 49.074219 33.777344 49.9375 32.289062 C 51.015625 30.871094 52.621094 29.832031 54.246094 29.152344 C 54.464844 29.152344 54.679688 29.152344 54.90625 29.152344 C 54.746094 28.433594 54.746094 28.433594 54.058594 28.125 C 52.953125 27.6875 51.8125 27.699219 50.636719 27.675781 C 50.414062 27.667969 50.191406 27.660156 49.960938 27.652344 C 49.414062 27.632812 48.863281 27.617188 48.316406 27.605469 C 48.246094 24.75 48.75 22.253906 50.734375 20.089844 C 54.332031 16.972656 59.34375 16.324219 63.417969 18.933594 Z M 63.417969 18.933594 " fill-opacity="1" fill-rule="nonzero"/></g></svg>