<svg xmlns="http://www.w3.org/2000/svg" xmlns:xlink="http://www.w3.org/1999/xlink" width="300" zoomAndPan="magnify" viewBox="0 0 224.87999 89.999999" height="120" preserveAspectRatio="xMidYMid meet" version="1.0"><defs><clipPath id="c213014c08"><path d="M 0.300781 26.941406 L 224.582031 26.941406 L 224.582031 62.835938 L 0.300781 62.835938 Z M 0.300781 26.941406 " clip-rule="nonzero"/></clipPath></defs><g clip-path="url(#c213014c08)"><path fill="#ffffff" d="M 143.027344 106.980469 C 94.882812 106.980469 46.863281 106.980469 -1.160156 106.980469 C -1.160156 65.117188 -1.160156 23.25 -1.160156 -18.617188 C 74.199219 -18.617188 149.558594 -18.617188 224.917969 -18.617188 C 224.917969 23.25 224.917969 65.117188 224.917969 106.980469 C 197.664062 106.980469 170.40625 106.980469 143.027344 106.980469 M 6.167969 47.824219 C 6.167969 51.496094 6.167969 55.164062 6.167969 58.960938 C 6.726562 58.960938 7.132812 58.960938 7.539062 58.960938 C 12.269531 58.960938 17 58.972656 21.730469 58.949219 C 22.601562 58.945312 23.492188 58.875 24.347656 58.714844 C 29.269531 57.777344 31.910156 53.414062 30.417969 48.652344 C 29.652344 46.21875 27.980469 44.613281 25.4375 43.8125 C 29.996094 42.039062 30.84375 37.695312 29.636719 34.507812 C 28.371094 31.160156 25.695312 29.691406 22.304688 29.632812 C 16.152344 29.523438 10 29.59375 3.847656 29.59375 C 3.792969 29.59375 3.734375 29.675781 3.601562 29.78125 C 4.050781 30.363281 4.457031 30.992188 4.960938 31.523438 C 5.90625 32.515625 6.246094 33.636719 6.21875 35.019531 C 6.136719 39.203125 6.175781 43.390625 6.167969 47.824219 M 77.777344 44.492188 C 74.6875 40.28125 71.515625 36.128906 68.546875 31.835938 C 67.355469 30.109375 66.097656 29.242188 63.953125 29.53125 C 62.433594 29.734375 60.859375 29.570312 59.3125 29.570312 C 58.757812 29.570312 58.207031 29.570312 57.429688 29.570312 C 58.152344 30.496094 58.636719 31.230469 59.234375 31.851562 C 60.140625 32.792969 60.375 33.859375 60.367188 35.148438 C 60.3125 42.636719 60.339844 50.132812 60.339844 57.621094 C 60.339844 58.0625 60.339844 58.503906 60.339844 58.910156 C 62.527344 58.910156 64.550781 58.910156 66.683594 58.910156 C 66.683594 52.574219 66.683594 46.335938 66.683594 39.9375 C 66.890625 40.167969 66.980469 40.246094 67.046875 40.339844 C 71.390625 46.273438 75.734375 52.210938 80.09375 58.132812 C 80.34375 58.472656 80.746094 58.90625 81.09375 58.921875 C 82.917969 59.003906 84.746094 58.960938 86.59375 58.960938 C 86.59375 49.085938 86.59375 39.367188 86.59375 29.613281 C 84.5 29.613281 82.5 29.613281 80.332031 29.613281 C 80.332031 35.632812 80.332031 41.605469 80.332031 47.894531 C 79.378906 46.617188 78.636719 45.625 77.777344 44.492188 M 130.597656 29.570312 C 129.578125 29.570312 128.554688 29.570312 127.332031 29.570312 C 128.011719 30.445312 128.492188 31.171875 129.082031 31.800781 C 129.996094 32.769531 130.257812 33.855469 130.246094 35.191406 C 130.183594 42.683594 130.21875 50.175781 130.21875 57.667969 C 130.21875 58.109375 130.21875 58.546875 130.21875 58.949219 C 132.402344 58.949219 134.398438 58.949219 136.519531 58.949219 C 136.519531 52.613281 136.519531 46.335938 136.519531 39.824219 C 136.855469 40.246094 137.035156 40.460938 137.203125 40.6875 C 141.480469 46.515625 145.753906 52.351562 150.042969 58.171875 C 150.269531 58.484375 150.617188 58.910156 150.925781 58.921875 C 152.792969 58.992188 154.660156 58.957031 156.507812 58.957031 C 156.507812 49.070312 156.507812 39.339844 156.507812 29.617188 C 154.429688 29.617188 152.429688 29.617188 150.328125 29.617188 C 150.328125 35.660156 150.328125 41.664062 150.328125 47.992188 C 149.847656 47.359375 149.554688 46.980469 149.269531 46.59375 C 145.292969 41.21875 141.308594 35.847656 137.355469 30.453125 C 136.894531 29.824219 136.441406 29.507812 135.617188 29.546875 C 134.03125 29.625 132.441406 29.570312 130.597656 29.570312 M 213.121094 41.257812 C 211.730469 37.640625 210.320312 34.027344 208.960938 30.402344 C 208.710938 29.730469 208.371094 29.546875 207.679688 29.554688 C 204.292969 29.589844 200.902344 29.566406 197.511719 29.578125 C 197.253906 29.578125 196.996094 29.652344 196.625 29.710938 C 197.441406 30.746094 198.214844 31.628906 198.851562 32.601562 C 199.09375 32.96875 199.214844 33.617188 199.066406 34.011719 C 196.785156 40.0625 194.449219 46.089844 192.132812 52.125 C 191.261719 54.386719 190.402344 56.648438 189.5 59.003906 C 191.699219 59.003906 193.710938 58.972656 195.714844 59.019531 C 196.382812 59.035156 196.675781 58.800781 196.878906 58.1875 C 197.265625 57 197.703125 55.820312 198.203125 54.675781 C 198.324219 54.386719 198.761719 54.054688 199.0625 54.050781 C 203.035156 54.011719 207.007812 54.023438 211.050781 54.023438 C 211.671875 55.679688 212.28125 57.3125 212.882812 58.914062 C 215.234375 58.914062 217.539062 58.914062 219.964844 58.914062 C 217.675781 53.011719 215.4375 47.222656 213.121094 41.257812 M 185.824219 55.460938 C 187.203125 54.503906 187.992188 53.355469 187.832031 51.503906 C 187.636719 49.304688 187.785156 47.074219 187.785156 44.855469 C 187.785156 44.164062 187.785156 43.472656 187.785156 42.800781 C 183.273438 42.800781 178.960938 42.800781 174.464844 42.800781 C 175.433594 44.011719 176.375 45.027344 177.117188 46.171875 C 178.019531 47.546875 179.089844 48.34375 180.804688 48.007812 C 181.144531 47.945312 181.519531 48.046875 181.917969 48.078125 C 181.917969 49.078125 181.96875 49.960938 181.894531 50.832031 C 181.863281 51.191406 181.652344 51.648438 181.371094 51.851562 C 179.324219 53.355469 176.976562 53.9375 174.5 53.578125 C 170 52.925781 167.195312 49.589844 166.929688 44.8125 C 166.703125 40.753906 168.808594 37.070312 172.179688 35.621094 C 176.011719 33.980469 179.578125 34.988281 182.652344 38.617188 C 184.261719 37.714844 185.882812 36.804688 187.507812 35.890625 C 182.71875 28.410156 173.25 28.039062 167.023438 32.046875 C 161.664062 35.492188 159.914062 40.671875 160.738281 46.816406 C 161.261719 50.707031 163.167969 53.882812 166.375 56.082031 C 172.207031 60.085938 180.214844 59.941406 185.824219 55.460938 M 52.96875 29.570312 C 46.867188 29.570312 40.769531 29.570312 34.632812 29.570312 C 34.632812 39.417969 34.632812 49.144531 34.632812 58.902344 C 41.554688 58.902344 48.402344 58.902344 55.308594 58.902344 C 55.308594 57.070312 55.308594 55.296875 55.308594 53.378906 C 50.460938 53.378906 45.679688 53.378906 40.917969 53.378906 C 40.917969 51.074219 40.917969 48.917969 40.917969 46.675781 C 44.914062 46.675781 48.835938 46.675781 52.777344 46.675781 C 52.777344 44.820312 52.777344 43.050781 52.777344 41.179688 C 48.777344 41.179688 44.863281 41.179688 40.910156 41.179688 C 40.910156 39.085938 40.910156 37.097656 40.910156 34.964844 C 45.769531 34.964844 50.554688 34.964844 55.3125 34.964844 C 55.3125 33.078125 55.3125 31.34375 55.3125 29.570312 C 54.550781 29.570312 53.886719 29.570312 52.96875 29.570312 M 109.738281 29.570312 C 103.265625 29.570312 96.792969 29.570312 90.308594 29.570312 C 90.308594 31.441406 90.308594 33.175781 90.308594 35.070312 C 94.863281 35.070312 99.339844 35.070312 104.007812 35.070312 C 103.542969 35.742188 103.226562 36.222656 102.886719 36.6875 C 98.863281 42.132812 94.839844 47.578125 90.824219 53.03125 C 90.585938 53.355469 90.277344 53.738281 90.261719 54.105469 C 90.199219 55.683594 90.234375 57.265625 90.234375 58.886719 C 97.738281 58.886719 105.121094 58.886719 112.535156 58.886719 C 112.535156 57.042969 112.535156 55.269531 112.535156 53.390625 C 107.839844 53.390625 103.21875 53.390625 98.402344 53.390625 C 98.769531 52.867188 99.015625 52.496094 99.28125 52.140625 C 103.445312 46.539062 107.609375 40.9375 111.765625 35.328125 C 112.007812 35.003906 112.320312 34.625 112.335938 34.257812 C 112.398438 32.722656 112.363281 31.1875 112.363281 29.570312 C 111.480469 29.570312 110.734375 29.570312 109.738281 29.570312 M 123.6875 48.828125 C 123.6875 42.445312 123.6875 36.058594 123.6875 29.628906 C 121.546875 29.628906 119.523438 29.628906 117.472656 29.628906 C 117.472656 39.441406 117.472656 49.191406 117.472656 58.925781 C 119.578125 58.925781 121.605469 58.925781 123.6875 58.925781 C 123.6875 55.59375 123.6875 52.339844 123.6875 48.828125 Z M 123.6875 48.828125 " fill-opacity="1" fill-rule="nonzero"/></g><path fill="#0c3653" d="M 6.167969 47.699219 C 6.175781 43.390625 6.136719 39.203125 6.21875 35.019531 C 6.246094 33.636719 5.90625 32.515625 4.960938 31.523438 C 4.457031 30.992188 4.050781 30.363281 3.601562 29.78125 C 3.734375 29.675781 3.792969 29.59375 3.847656 29.59375 C 10 29.59375 16.152344 29.523438 22.304688 29.632812 C 25.695312 29.691406 28.371094 31.160156 29.636719 34.507812 C 30.84375 37.695312 29.996094 42.039062 25.4375 43.8125 C 27.980469 44.613281 29.652344 46.21875 30.417969 48.652344 C 31.910156 53.414062 29.269531 57.777344 24.347656 58.714844 C 23.492188 58.875 22.601562 58.945312 21.730469 58.949219 C 17 58.972656 12.269531 58.960938 7.539062 58.960938 C 7.132812 58.960938 6.726562 58.960938 6.167969 58.960938 C 6.167969 55.164062 6.167969 51.496094 6.167969 47.699219 M 17.554688 53.476562 C 18.640625 53.472656 19.730469 53.496094 20.816406 53.460938 C 23.023438 53.386719 24.433594 52.0625 24.414062 50.125 C 24.390625 48.191406 22.941406 46.785156 20.835938 46.710938 C 19.75 46.675781 18.660156 46.699219 17.574219 46.695312 C 15.917969 46.695312 14.265625 46.695312 12.636719 46.695312 C 12.636719 49.039062 12.636719 51.203125 12.636719 53.476562 C 14.226562 53.476562 15.765625 53.476562 17.554688 53.476562 M 23.34375 36.433594 C 22.605469 36.007812 21.882812 35.246094 21.121094 35.207031 C 18.296875 35.058594 15.460938 35.148438 12.613281 35.148438 C 12.613281 37.230469 12.613281 39.242188 12.613281 41.25 C 15.394531 41.25 18.074219 41.375 20.734375 41.214844 C 23.386719 41.058594 24.433594 39.121094 23.34375 36.433594 Z M 23.34375 36.433594 " fill-opacity="1" fill-rule="nonzero"/><path fill="#0c3653" d="M 77.835938 44.5625 C 78.636719 45.625 79.378906 46.617188 80.332031 47.894531 C 80.332031 41.605469 80.332031 35.632812 80.332031 29.613281 C 82.5 29.613281 84.5 29.613281 86.59375 29.613281 C 86.59375 39.367188 86.59375 49.085938 86.59375 58.960938 C 84.746094 58.960938 82.917969 59.003906 81.09375 58.921875 C 80.746094 58.90625 80.34375 58.472656 80.09375 58.132812 C 75.734375 52.210938 71.390625 46.273438 67.046875 40.339844 C 66.980469 40.246094 66.890625 40.167969 66.683594 39.9375 C 66.683594 46.335938 66.683594 52.574219 66.683594 58.910156 C 64.550781 58.910156 62.527344 58.910156 60.339844 58.910156 C 60.339844 58.503906 60.339844 58.0625 60.339844 57.621094 C 60.339844 50.132812 60.3125 42.636719 60.367188 35.148438 C 60.375 33.859375 60.140625 32.792969 59.234375 31.851562 C 58.636719 31.230469 58.152344 30.496094 57.429688 29.570312 C 58.207031 29.570312 58.757812 29.570312 59.3125 29.570312 C 60.859375 29.570312 62.433594 29.734375 63.953125 29.53125 C 66.097656 29.242188 67.355469 30.109375 68.546875 31.835938 C 71.515625 36.128906 74.6875 40.28125 77.835938 44.5625 Z M 77.835938 44.5625 " fill-opacity="1" fill-rule="nonzero"/><path fill="#0a3552" d="M 130.722656 29.570312 C 132.441406 29.570312 134.03125 29.625 135.617188 29.546875 C 136.441406 29.507812 136.894531 29.824219 137.355469 30.453125 C 141.308594 35.847656 145.292969 41.21875 149.269531 46.59375 C 149.554688 46.980469 149.847656 47.359375 150.328125 47.992188 C 150.328125 41.664062 150.328125 35.660156 150.328125 29.617188 C 152.429688 29.617188 154.429688 29.617188 156.507812 29.617188 C 156.507812 39.339844 156.507812 49.070312 156.507812 58.957031 C 154.660156 58.957031 152.792969 58.992188 150.925781 58.921875 C 150.617188 58.910156 150.269531 58.484375 150.042969 58.171875 C 145.753906 52.351562 141.480469 46.515625 137.203125 40.6875 C 137.035156 40.460938 136.855469 40.246094 136.519531 39.824219 C 136.519531 46.335938 136.519531 52.613281 136.519531 58.949219 C 134.398438 58.949219 132.402344 58.949219 130.21875 58.949219 C 130.21875 58.546875 130.21875 58.109375 130.21875 57.667969 C 130.21875 50.175781 130.183594 42.683594 130.246094 35.191406 C 130.257812 33.855469 129.996094 32.769531 129.082031 31.800781 C 128.492188 31.171875 128.011719 30.445312 127.332031 29.570312 C 128.554688 29.570312 129.578125 29.570312 130.722656 29.570312 Z M 130.722656 29.570312 " fill-opacity="1" fill-rule="nonzero"/><path fill="#0b3552" d="M 213.160156 41.347656 C 215.4375 47.222656 217.675781 53.011719 219.964844 58.914062 C 217.539062 58.914062 215.234375 58.914062 212.882812 58.914062 C 212.28125 57.3125 211.671875 55.679688 211.050781 54.023438 C 207.007812 54.023438 203.035156 54.011719 199.0625 54.050781 C 198.761719 54.054688 198.324219 54.386719 198.203125 54.675781 C 197.703125 55.820312 197.265625 57 196.878906 58.1875 C 196.675781 58.800781 196.382812 59.035156 195.714844 59.019531 C 193.710938 58.972656 191.699219 59.003906 189.5 59.003906 C 190.402344 56.648438 191.261719 54.386719 192.132812 52.125 C 194.449219 46.089844 196.785156 40.0625 199.066406 34.011719 C 199.214844 33.617188 199.09375 32.96875 198.851562 32.601562 C 198.214844 31.628906 197.441406 30.746094 196.625 29.710938 C 196.996094 29.652344 197.253906 29.578125 197.511719 29.578125 C 200.902344 29.566406 204.292969 29.589844 207.679688 29.554688 C 208.371094 29.546875 208.710938 29.730469 208.960938 30.402344 C 210.320312 34.027344 211.730469 37.640625 213.160156 41.347656 M 202.214844 48.5 C 204.496094 48.5 206.773438 48.5 209.222656 48.5 C 207.6875 44.246094 206.210938 40.15625 204.648438 35.832031 C 203.085938 40.152344 201.601562 44.269531 200.074219 48.5 C 200.8125 48.5 201.394531 48.5 202.214844 48.5 Z M 202.214844 48.5 " fill-opacity="1" fill-rule="nonzero"/><path fill="#0b3653" d="M 185.753906 55.515625 C 180.214844 59.941406 172.207031 60.085938 166.375 56.082031 C 163.167969 53.882812 161.261719 50.707031 160.738281 46.816406 C 159.914062 40.671875 161.664062 35.492188 167.023438 32.046875 C 173.25 28.039062 182.71875 28.410156 187.507812 35.890625 C 185.882812 36.804688 184.261719 37.714844 182.652344 38.617188 C 179.578125 34.988281 176.011719 33.980469 172.179688 35.621094 C 168.808594 37.070312 166.703125 40.753906 166.929688 44.8125 C 167.195312 49.589844 170 52.925781 174.5 53.578125 C 176.976562 53.9375 179.324219 53.355469 181.371094 51.851562 C 181.652344 51.648438 181.863281 51.191406 181.894531 50.832031 C 181.96875 49.960938 181.917969 49.078125 181.917969 48.078125 C 181.519531 48.046875 181.144531 47.945312 180.804688 48.007812 C 179.089844 48.34375 178.019531 47.546875 177.117188 46.171875 C 176.375 45.027344 175.433594 44.011719 174.464844 42.800781 C 178.960938 42.800781 183.273438 42.800781 187.785156 42.800781 C 187.785156 43.472656 187.785156 44.164062 187.785156 44.855469 C 187.785156 47.074219 187.636719 49.304688 187.832031 51.503906 C 187.992188 53.355469 187.203125 54.503906 185.753906 55.515625 Z M 185.753906 55.515625 " fill-opacity="1" fill-rule="nonzero"/><path fill="#0b3653" d="M 53.09375 29.570312 C 53.886719 29.570312 54.550781 29.570312 55.3125 29.570312 C 55.3125 31.34375 55.3125 33.078125 55.3125 34.964844 C 50.554688 34.964844 45.769531 34.964844 40.910156 34.964844 C 40.910156 37.097656 40.910156 39.085938 40.910156 41.179688 C 44.863281 41.179688 48.777344 41.179688 52.777344 41.179688 C 52.777344 43.050781 52.777344 44.820312 52.777344 46.675781 C 48.835938 46.675781 44.914062 46.675781 40.917969 46.675781 C 40.917969 48.917969 40.917969 51.074219 40.917969 53.378906 C 45.679688 53.378906 50.460938 53.378906 55.308594 53.378906 C 55.308594 55.296875 55.308594 57.070312 55.308594 58.902344 C 48.402344 58.902344 41.554688 58.902344 34.632812 58.902344 C 34.632812 49.144531 34.632812 39.417969 34.632812 29.570312 C 40.769531 29.570312 46.867188 29.570312 53.09375 29.570312 Z M 53.09375 29.570312 " fill-opacity="1" fill-rule="nonzero"/><path fill="#0b3652" d="M 109.863281 29.570312 C 110.734375 29.570312 111.480469 29.570312 112.363281 29.570312 C 112.363281 31.1875 112.398438 32.722656 112.335938 34.257812 C 112.320312 34.625 112.007812 35.003906 111.765625 35.328125 C 107.609375 40.9375 103.445312 46.539062 99.28125 52.140625 C 99.015625 52.496094 98.769531 52.867188 98.402344 53.390625 C 103.21875 53.390625 107.839844 53.390625 112.535156 53.390625 C 112.535156 55.269531 112.535156 57.042969 112.535156 58.886719 C 105.121094 58.886719 97.738281 58.886719 90.234375 58.886719 C 90.234375 57.265625 90.199219 55.683594 90.261719 54.105469 C 90.277344 53.738281 90.585938 53.355469 90.824219 53.03125 C 94.839844 47.578125 98.863281 42.132812 102.886719 36.6875 C 103.226562 36.222656 103.542969 35.742188 104.007812 35.070312 C 99.339844 35.070312 94.863281 35.070312 90.308594 35.070312 C 90.308594 33.175781 90.308594 31.441406 90.308594 29.570312 C 96.792969 29.570312 103.265625 29.570312 109.863281 29.570312 Z M 109.863281 29.570312 " fill-opacity="1" fill-rule="nonzero"/><path fill="#093451" d="M 123.6875 48.957031 C 123.6875 52.339844 123.6875 55.59375 123.6875 58.925781 C 121.605469 58.925781 119.578125 58.925781 117.472656 58.925781 C 117.472656 49.191406 117.472656 39.441406 117.472656 29.628906 C 119.523438 29.628906 121.546875 29.628906 123.6875 29.628906 C 123.6875 36.058594 123.6875 42.445312 123.6875 48.957031 Z M 123.6875 48.957031 " fill-opacity="1" fill-rule="nonzero"/><path fill="#fefefe" d="M 17.429688 53.476562 C 15.765625 53.476562 14.226562 53.476562 12.636719 53.476562 C 12.636719 51.203125 12.636719 49.039062 12.636719 46.695312 C 14.265625 46.695312 15.917969 46.695312 17.574219 46.695312 C 18.660156 46.699219 19.75 46.675781 20.835938 46.710938 C 22.941406 46.785156 24.390625 48.191406 24.414062 50.125 C 24.433594 52.0625 23.023438 53.386719 20.816406 53.460938 C 19.730469 53.496094 18.640625 53.472656 17.429688 53.476562 Z M 17.429688 53.476562 " fill-opacity="1" fill-rule="nonzero"/><path fill="#f8f9fa" d="M 23.394531 36.519531 C 24.433594 39.121094 23.386719 41.058594 20.734375 41.214844 C 18.074219 41.375 15.394531 41.25 12.613281 41.25 C 12.613281 39.242188 12.613281 37.230469 12.613281 35.148438 C 15.460938 35.148438 18.296875 35.058594 21.121094 35.207031 C 21.882812 35.246094 22.605469 36.007812 23.394531 36.519531 Z M 23.394531 36.519531 " fill-opacity="1" fill-rule="nonzero"/><path fill="#fbfcfc" d="M 202.09375 48.5 C 201.394531 48.5 200.8125 48.5 200.074219 48.5 C 201.601562 44.269531 203.085938 40.152344 204.648438 35.832031 C 206.210938 40.15625 207.6875 44.246094 209.222656 48.5 C 206.773438 48.5 204.496094 48.5 202.09375 48.5 Z M 202.09375 48.5 " fill-opacity="1" fill-rule="nonzero"/></svg>