<svg xmlns="http://www.w3.org/2000/svg" xmlns:xlink="http://www.w3.org/1999/xlink" width="300" zoomAndPan="magnify" viewBox="0 0 224.87999 89.999999" height="120" preserveAspectRatio="xMidYMid meet" version="1.0"><defs><clipPath id="44c45d91b3"><path d="M 5.863281 0.0234375 L 64 0.0234375 L 64 89.976562 L 5.863281 89.976562 Z M 5.863281 0.0234375 " clip-rule="nonzero"/></clipPath><clipPath id="2a8f51b9b6"><path d="M 62 0.0234375 L 153 0.0234375 L 153 89.976562 L 62 89.976562 Z M 62 0.0234375 " clip-rule="nonzero"/></clipPath><clipPath id="698bee8da4"><path d="M 138 0.0234375 L 218.75 0.0234375 L 218.75 89.976562 L 138 89.976562 Z M 138 0.0234375 " clip-rule="nonzero"/></clipPath></defs><g clip-path="url(#44c45d91b3)"><path fill="#111212" d="M 5.960938 0.0234375 L 5.960938 89.976562 L 33.152344 89.976562 L 33.152344 60.945312 L 57.871094 60.945312 L 57.871094 36.332031 L 33.152344 36.332031 L 33.152344 24.558594 L 63.464844 24.558594 L 61.820312 0.0234375 Z M 5.960938 0.0234375 " fill-opacity="1" fill-rule="nonzero"/></g><g clip-path="url(#2a8f51b9b6)"><path fill="#111212" d="M 107.089844 0.0234375 C 82.203125 0.0234375 62.171875 20.082031 62.171875 45 C 62.171875 69.917969 82.203125 89.976562 107.089844 89.976562 C 131.976562 89.976562 152.007812 69.917969 152.007812 45 C 152.007812 20.082031 131.976562 0.0234375 107.089844 0.0234375 Z M 107.089844 18.550781 C 111.292969 18.550781 114.671875 21.933594 114.671875 26.140625 L 114.671875 63.859375 C 114.671875 68.066406 111.292969 71.453125 107.089844 71.453125 C 102.886719 71.453125 99.503906 68.066406 99.503906 63.859375 L 99.503906 26.140625 C 99.503906 21.933594 102.886719 18.550781 107.089844 18.550781 Z M 107.089844 18.550781 " fill-opacity="1" fill-rule="nonzero"/></g><g clip-path="url(#698bee8da4)"><path fill="#111212" d="M 138.535156 0.0234375 L 164.023438 45 L 138.535156 89.976562 L 167.675781 89.976562 L 178.589844 70.710938 L 189.511719 89.976562 L 218.648438 89.976562 L 193.164062 45 L 218.648438 0.0234375 L 189.511719 0.0234375 L 178.589844 19.289062 L 167.675781 0.0234375 Z M 138.535156 0.0234375 " fill-opacity="1" fill-rule="nonzero"/></g></svg>