<svg xmlns="http://www.w3.org/2000/svg" xmlns:xlink="http://www.w3.org/1999/xlink" width="300" zoomAndPan="magnify" viewBox="0 0 224.87999 89.999999" height="120" preserveAspectRatio="xMidYMid meet" version="1.0"><defs><clipPath id="e438da4da5"><path d="M 67.550781 0.0234375 L 157.503906 0.0234375 L 157.503906 89.976562 L 67.550781 89.976562 Z M 67.550781 0.0234375 " clip-rule="nonzero"/></clipPath></defs><g clip-path="url(#e438da4da5)"><path fill="#000000" d="M 112.503906 0.535156 C 112.589844 0.535156 112.671875 0.535156 112.753906 0.535156 C 121.410156 0.550781 129.945312 3.0625 137.171875 7.84375 C 137.265625 7.902344 137.265625 7.902344 137.363281 7.96875 C 138.835938 8.941406 140.242188 10.019531 141.574219 11.179688 C 141.636719 11.234375 141.703125 11.289062 141.769531 11.347656 C 141.9375 11.496094 142.109375 11.644531 142.277344 11.796875 C 142.335938 11.847656 142.398438 11.898438 142.457031 11.953125 C 143.074219 12.5 143.660156 13.074219 144.242188 13.65625 C 144.40625 13.820312 144.570312 13.984375 144.734375 14.148438 C 145.253906 14.667969 145.765625 15.1875 146.238281 15.746094 C 146.316406 15.835938 146.390625 15.925781 146.46875 16.015625 C 147.128906 16.78125 147.746094 17.574219 148.351562 18.382812 C 148.398438 18.445312 148.445312 18.507812 148.492188 18.574219 C 149.761719 20.269531 150.851562 22.0625 151.871094 23.917969 C 151.910156 23.988281 151.949219 24.058594 151.988281 24.128906 C 154.988281 29.546875 156.566406 35.699219 157.0625 41.835938 C 157.070312 41.914062 157.078125 41.996094 157.082031 42.074219 C 157.664062 49.71875 156.09375 57.515625 146.832031 73.695312 C 146.722656 73.824219 146.613281 73.949219 146.5 74.078125 C 146.445312 74.140625 146.390625 74.207031 146.332031 74.273438 C 146.183594 74.441406 146.035156 74.609375 145.886719 74.777344 C 145.824219 74.851562 145.757812 74.921875 145.695312 74.996094 C 145.347656 75.382812 144.996094 75.757812 144.625 76.121094 C 144.46875 76.285156 144.320312 76.453125 144.175781 76.625 C 143.917969 76.921875 143.636719 77.179688 143.335938 77.433594 C 143.15625 77.59375 142.988281 77.757812 142.820312 77.929688 C 142.476562 78.28125 142.105469 78.582031 141.722656 78.890625 C 141.515625 79.058594 141.316406 79.230469 141.121094 79.414062 C 140.511719 79.957031 139.851562 80.441406 139.195312 80.929688 C 139.132812 80.976562 139.066406 81.023438 139 81.074219 C 136.878906 82.648438 134.601562 83.957031 132.242188 85.144531 C 132.128906 85.203125 132.128906 85.203125 132.011719 85.261719 C 127.394531 87.574219 122.3125 88.878906 117.191406 89.449219 C 117.101562 89.460938 117.011719 89.46875 116.917969 89.480469 C 113.988281 89.804688 110.878906 89.785156 107.949219 89.449219 C 107.847656 89.4375 107.746094 89.425781 107.644531 89.414062 C 102.273438 88.800781 97.203125 87.28125 92.371094 84.882812 C 92.28125 84.835938 92.191406 84.789062 92.09375 84.746094 C 90.050781 83.726562 88.144531 82.527344 86.300781 81.191406 C 86.203125 81.121094 86.203125 81.121094 86.105469 81.050781 C 85.339844 80.496094 84.605469 79.914062 83.890625 79.296875 C 83.738281 79.164062 83.582031 79.03125 83.421875 78.898438 C 82.945312 78.492188 82.472656 78.089844 82.035156 77.640625 C 81.886719 77.488281 81.730469 77.355469 81.566406 77.214844 C 80.925781 76.660156 80.324219 76.050781 79.773438 75.40625 C 79.609375 75.214844 79.4375 75.027344 79.261719 74.84375 C 78.769531 74.3125 78.300781 73.765625 77.851562 73.199219 C 77.785156 73.117188 77.785156 73.117188 77.71875 73.035156 C 75.613281 70.410156 73.886719 67.59375 72.394531 64.589844 C 72.339844 64.480469 72.339844 64.480469 72.285156 64.371094 C 72.074219 63.949219 71.875 63.527344 71.6875 63.097656 C 71.652344 63.015625 71.617188 62.9375 71.582031 62.855469 C 68.5625 55.914062 67.339844 48.046875 68.167969 40.519531 C 68.179688 40.417969 68.191406 40.316406 68.199219 40.214844 C 69.125 31.941406 72.296875 24.046875 79.082031 15.585938 C 79.25 15.402344 79.414062 15.21875 79.578125 15.027344 C 79.820312 14.75 80.074219 14.492188 80.339844 14.234375 C 80.484375 14.082031 80.621094 13.925781 80.753906 13.765625 C 81.214844 13.234375 81.746094 12.769531 82.265625 12.292969 C 82.410156 12.164062 82.550781 12.03125 82.691406 11.898438 C 83.234375 11.402344 83.789062 10.9375 84.363281 10.476562 C 84.464844 10.394531 84.5625 10.3125 84.664062 10.230469 C 85.476562 9.570312 86.316406 8.960938 87.179688 8.371094 C 87.257812 8.316406 87.257812 8.316406 87.339844 8.257812 C 89.160156 7 91.09375 5.929688 93.078125 4.941406 C 93.144531 4.910156 93.214844 4.875 93.285156 4.839844 C 97.714844 2.613281 102.679688 1.332031 107.59375 0.789062 C 107.65625 0.78125 107.722656 0.773438 107.789062 0.765625 C 109.359375 0.59375 110.925781 0.53125 112.503906 0.535156 Z M 112.503906 0.535156 " fill-opacity="1" fill-rule="nonzero"/></g><path fill="#fefefe" d="M 99.148438 21.546875 C 101.558594 21.546875 103.972656 21.546875 106.453125 21.546875 C 106.484375 25.75 106.511719 29.953125 106.542969 34.28125 C 106.804688 33.964844 107.066406 33.644531 107.335938 33.316406 C 109.230469 31.609375 111.414062 30.996094 113.933594 31.105469 C 117.296875 31.3125 120.414062 32.753906 122.824219 35.074219 C 122.898438 35.140625 122.972656 35.210938 123.050781 35.28125 C 124.101562 36.28125 124.894531 37.476562 125.554688 38.761719 C 125.582031 38.816406 125.609375 38.875 125.640625 38.929688 C 127.222656 42.03125 127.523438 45.769531 126.488281 49.089844 C 126.417969 49.308594 126.339844 49.527344 126.257812 49.742188 C 126.199219 49.90625 126.199219 49.90625 126.140625 50.070312 C 125.449219 51.894531 124.445312 53.441406 123.089844 54.839844 C 122.976562 54.957031 122.976562 54.957031 122.863281 55.082031 C 121.308594 56.707031 119.394531 57.722656 117.28125 58.441406 C 117.171875 58.476562 117.0625 58.515625 116.953125 58.550781 C 113.644531 59.578125 109.835938 59.179688 106.761719 57.625 C 105.390625 56.898438 104.230469 55.988281 103.109375 54.925781 C 103.023438 54.847656 103.023438 54.847656 102.9375 54.769531 C 101.726562 53.625 100.902344 52.113281 100.207031 50.621094 C 100.15625 50.519531 100.109375 50.417969 100.058594 50.3125 C 99.636719 49.339844 99.433594 48.320312 99.238281 47.285156 C 99.222656 47.214844 99.207031 47.144531 99.191406 47.070312 C 99.132812 46.625 99.136719 46.183594 99.140625 45.738281 C 99.140625 45.582031 99.140625 45.582031 99.136719 45.421875 C 99.136719 45.136719 99.140625 44.851562 99.140625 44.5625 C 99.140625 44.253906 99.140625 43.945312 99.140625 43.636719 C 99.140625 43.101562 99.140625 42.566406 99.140625 42.03125 C 99.140625 41.257812 99.140625 40.484375 99.140625 39.710938 C 99.140625 38.457031 99.140625 37.199219 99.144531 35.945312 C 99.144531 34.726562 99.144531 33.507812 99.144531 32.289062 C 99.144531 32.214844 99.144531 32.136719 99.144531 32.058594 C 99.144531 31.683594 99.144531 31.304688 99.144531 30.929688 C 99.144531 27.800781 99.148438 24.671875 99.148438 21.546875 Z M 99.148438 21.546875 " fill-opacity="1" fill-rule="nonzero"/><path fill="#fefefe" d="M 92.679688 34.628906 C 94.996094 36.671875 96.523438 39.433594 97.125 42.453125 C 97.140625 42.515625 97.152344 42.574219 97.167969 42.640625 C 97.332031 43.402344 97.324219 44.15625 97.320312 44.929688 C 97.320312 45.082031 97.320312 45.234375 97.320312 45.382812 C 97.320312 45.789062 97.320312 46.195312 97.320312 46.601562 C 97.316406 47.027344 97.316406 47.453125 97.316406 47.878906 C 97.316406 48.6875 97.316406 49.492188 97.3125 50.296875 C 97.3125 51.386719 97.308594 52.472656 97.308594 53.5625 C 97.308594 55.277344 97.304688 56.988281 97.300781 58.703125 C 94.890625 58.703125 92.480469 58.703125 89.996094 58.703125 C 89.964844 57.777344 89.9375 56.847656 89.90625 55.894531 C 89.769531 56.066406 89.632812 56.238281 89.488281 56.414062 C 88.242188 57.90625 86.367188 58.796875 84.449219 59.054688 C 84.070312 59.082031 83.6875 59.085938 83.308594 59.082031 C 83.203125 59.082031 83.097656 59.082031 82.992188 59.082031 C 79.6875 59.035156 76.507812 57.75 74.066406 55.542969 C 73.953125 55.445312 73.953125 55.445312 73.839844 55.347656 C 73.40625 54.972656 73.019531 54.582031 72.65625 54.136719 C 72.589844 54.058594 72.523438 53.976562 72.457031 53.894531 C 70.664062 51.671875 69.46875 48.753906 69.398438 45.878906 C 69.398438 45.808594 69.394531 45.738281 69.394531 45.667969 C 69.277344 41.847656 70.550781 38.289062 73.179688 35.488281 C 74.289062 34.339844 75.472656 33.453125 76.882812 32.703125 C 77.003906 32.632812 77.003906 32.632812 77.132812 32.5625 C 78.34375 31.917969 79.667969 31.511719 81.019531 31.296875 C 81.109375 31.277344 81.199219 31.261719 81.292969 31.242188 C 85.375 30.515625 89.589844 31.984375 92.679688 34.628906 Z M 92.679688 34.628906 " fill-opacity="1" fill-rule="nonzero"/><path fill="#fefefe" d="M 141.488281 31.113281 C 145.539062 30.976562 149.105469 32.429688 152.046875 35.160156 C 152.105469 35.214844 152.167969 35.269531 152.226562 35.328125 C 153.859375 36.882812 155.289062 39.269531 155.742188 41.484375 C 155.746094 41.660156 155.746094 41.835938 155.742188 42.011719 C 154.757812 42.039062 153.773438 42.058594 152.789062 42.074219 C 152.332031 42.078125 151.875 42.085938 151.417969 42.097656 C 150.976562 42.113281 150.535156 42.117188 150.09375 42.121094 C 149.925781 42.125 149.757812 42.128906 149.589844 42.132812 C 148.304688 42.179688 148.304688 42.179688 147.9375 41.902344 C 147.65625 41.59375 147.480469 41.242188 147.292969 40.871094 C 146.523438 39.867188 145.460938 39.292969 144.300781 38.851562 C 144.230469 38.820312 144.15625 38.789062 144.082031 38.757812 C 142.644531 38.226562 140.960938 38.433594 139.570312 39.011719 C 139.445312 39.070312 139.320312 39.136719 139.195312 39.203125 C 139.113281 39.246094 139.03125 39.289062 138.945312 39.332031 C 137.433594 40.164062 136.386719 41.472656 135.867188 43.121094 C 135.679688 43.792969 135.636719 44.417969 135.648438 45.109375 C 135.648438 45.257812 135.648438 45.257812 135.648438 45.40625 C 135.65625 47.027344 136.351562 48.617188 137.46875 49.792969 C 138.863281 51.085938 140.597656 51.773438 142.507812 51.707031 C 143.96875 51.613281 145.390625 51.046875 146.5 50.09375 C 146.628906 49.996094 146.628906 49.996094 146.753906 49.898438 C 147.058594 49.648438 147.269531 49.351562 147.492188 49.03125 C 147.53125 48.976562 147.566406 48.921875 147.609375 48.863281 C 147.769531 48.632812 147.929688 48.398438 148.085938 48.164062 C 148.335938 48.136719 148.566406 48.128906 148.816406 48.132812 C 148.894531 48.132812 148.96875 48.132812 149.046875 48.132812 C 149.296875 48.132812 149.546875 48.132812 149.796875 48.136719 C 149.972656 48.136719 150.144531 48.136719 150.316406 48.136719 C 150.773438 48.140625 151.230469 48.140625 151.6875 48.144531 C 152.15625 48.148438 152.621094 48.148438 153.085938 48.148438 C 154 48.152344 154.917969 48.15625 155.832031 48.164062 C 155.789062 48.328125 155.75 48.496094 155.710938 48.660156 C 155.6875 48.753906 155.664062 48.847656 155.640625 48.941406 C 155.042969 51.199219 153.832031 53.164062 152.222656 54.839844 C 152.113281 54.953125 152.113281 54.953125 152.003906 55.074219 C 151.046875 56.070312 149.929688 56.839844 148.703125 57.472656 C 148.644531 57.503906 148.589844 57.53125 148.53125 57.5625 C 145.214844 59.257812 141.34375 59.527344 137.792969 58.417969 C 135.789062 57.75 134.039062 56.636719 132.507812 55.191406 C 132.390625 55.082031 132.390625 55.082031 132.273438 54.976562 C 130.808594 53.574219 129.835938 51.867188 129.074219 50.007812 C 129.039062 49.925781 129.007812 49.847656 128.972656 49.765625 C 128.503906 48.605469 128.269531 47.207031 128.269531 45.964844 C 128.265625 45.898438 128.265625 45.832031 128.265625 45.761719 C 128.265625 45.625 128.265625 45.484375 128.265625 45.34375 C 128.265625 45.136719 128.265625 44.925781 128.261719 44.714844 C 128.257812 43.539062 128.355469 42.40625 128.695312 41.273438 C 128.730469 41.15625 128.730469 41.15625 128.765625 41.035156 C 129.453125 38.769531 130.699219 36.859375 132.332031 35.160156 C 132.378906 35.113281 132.425781 35.0625 132.472656 35.011719 C 133.449219 34.015625 134.609375 33.242188 135.851562 32.613281 C 135.945312 32.566406 136.042969 32.515625 136.140625 32.46875 C 137.796875 31.664062 139.644531 31.183594 141.488281 31.113281 Z M 141.488281 31.113281 " fill-opacity="1" fill-rule="nonzero"/><path fill="#010101" d="M 87.425781 39.761719 C 87.550781 39.867188 87.675781 39.972656 87.796875 40.082031 C 87.859375 40.136719 87.925781 40.195312 87.992188 40.253906 C 89.335938 41.5 89.964844 43.144531 90.03125 44.953125 C 90.066406 46.945312 89.308594 48.542969 87.945312 49.980469 C 86.667969 51.214844 84.980469 51.808594 83.226562 51.796875 C 81.371094 51.742188 79.765625 50.964844 78.464844 49.65625 C 77.597656 48.730469 77.117188 47.621094 76.792969 46.40625 C 76.769531 46.324219 76.769531 46.324219 76.746094 46.242188 C 76.375 44.558594 76.902344 42.835938 77.761719 41.398438 C 78.726562 39.945312 80.132812 39 81.808594 38.585938 C 81.882812 38.566406 81.953125 38.546875 82.027344 38.527344 C 83.878906 38.078125 85.917969 38.644531 87.425781 39.761719 Z M 87.425781 39.761719 " fill-opacity="1" fill-rule="nonzero"/><path fill="#010101" d="M 117.191406 39.816406 C 118.582031 40.878906 119.511719 42.476562 119.746094 44.210938 C 119.894531 45.988281 119.480469 47.816406 118.335938 49.214844 C 118.277344 49.289062 118.21875 49.363281 118.15625 49.441406 C 117.027344 50.765625 115.410156 51.609375 113.671875 51.765625 C 111.796875 51.878906 110.191406 51.414062 108.742188 50.183594 C 108.65625 50.121094 108.570312 50.054688 108.480469 49.992188 C 107.382812 49.058594 106.617188 47.460938 106.453125 46.054688 C 106.34375 44.148438 106.605469 42.394531 107.867188 40.882812 C 110.402344 38.078125 114.101562 37.605469 117.191406 39.816406 Z M 117.191406 39.816406 " fill-opacity="1" fill-rule="nonzero"/></svg>